<svg width="512" height="512" xmlns="http://www.w3.org/2000/svg">

 <g>
  <title>background</title>
  <rect fill="none" id="canvas_background" height="602" width="802" y="-1" x="-1"/>
 </g>
 <g>
  <title>Layer 1</title>
  <g id="svg_1">
   <g id="svg_2">
    <path fill="#ed7c21" stroke="#ed7c21" id="svg_3" d="m437.333,213.333c5.888,0 10.667,-4.779 10.667,-10.667l0,-128c0,-29.397 -23.936,-53.333 -53.333,-53.333l-341.334,0c-29.397,0 -53.333,23.936 -53.333,53.334l0,362.667c0,29.397 23.936,53.333 53.333,53.333l341.333,0c29.397,0 53.333,-23.936 53.333,-53.333l0,-64c0,-5.888 -4.779,-10.667 -10.667,-10.667c-5.888,0 -10.667,4.779 -10.667,10.667l0,64c0,17.643 -14.357,32 -32,32l-341.332,0c-17.643,0 -32,-14.357 -32,-32l0,-309.334l405.333,0l0,74.667c0.001,5.888 4.779,10.666 10.667,10.666zm-416,-106.666l0,-32c0,-17.643 14.357,-32 32,-32l341.333,0c17.643,0 32,14.357 32,32l0,32l-405.333,0z"/>
   </g>
  </g>
  <g id="svg_4">
   <g id="svg_5">
    <circle fill="#ed7c21" stroke="#ed7c21" id="svg_6" r="10.667" cy="74.667" cx="53.333"/>
   </g>
  </g>
  <g id="svg_7">
   <g id="svg_8">
    <circle fill="#ed7c21" stroke="#ed7c21" id="svg_9" r="10.667" cy="74.667" cx="96"/>
   </g>
  </g>
  <g id="svg_10">
   <g id="svg_11">
    <circle fill="#ed7c21" stroke="#ed7c21" id="svg_12" r="10.667" cy="74.667" cx="138.667"/>
   </g>
  </g>
  <g id="svg_13">
   <g id="svg_14">
    <path fill="#ed7c21" stroke="#ed7c21" id="svg_15" d="m501.333,320l-32,0l0,-74.667c0,-5.888 -4.779,-10.667 -10.667,-10.667s-10.666,4.779 -10.666,10.667l0,85.333c0,5.888 4.779,10.667 10.667,10.667l42.667,0c5.888,0 10.667,-4.779 10.667,-10.667s-4.78,-10.666 -10.668,-10.666z"/>
   </g>
  </g>
  <g id="svg_16">
   <g id="svg_17">
    <path fill="#ed7c21" stroke="#ed7c21" id="svg_18" d="m419.371,235.221c-4.352,-1.451 -9.131,0.043 -11.904,3.712l-23.467,31.275l-23.467,-31.275c-2.752,-3.691 -7.531,-5.163 -11.904,-3.712c-4.352,1.451 -7.296,5.525 -7.296,10.112l0,85.333c0,5.888 4.779,10.667 10.667,10.667c5.888,0 10.667,-4.779 10.667,-10.667l0,-53.333l12.8,17.067c4.032,5.376 13.056,5.376 17.067,0l12.8,-17.067l0,53.333c0,5.888 4.779,10.667 10.667,10.667c5.888,0 10.667,-4.779 10.667,-10.667l0,-85.333c-0.001,-4.586 -2.945,-8.661 -7.297,-10.112z"/>
   </g>
  </g>
  <g id="svg_19">
   <g id="svg_20">
    <path fill="#ed7c21" stroke="#ed7c21" id="svg_21" d="m290.667,288.021l27.221,-36.288c3.541,-4.715 2.581,-11.392 -2.133,-14.933c-4.693,-3.52 -11.392,-2.581 -14.933,2.133l-23.467,31.296l-23.488,-31.296c-3.541,-4.736 -10.24,-5.696 -14.933,-2.133c-4.715,3.541 -5.675,10.219 -2.133,14.933l27.221,36.288l-27.2,36.245c-3.541,4.715 -2.581,11.392 2.133,14.933c1.92,1.429 4.16,2.133 6.379,2.133c3.243,0 6.443,-1.472 8.555,-4.267l23.467,-31.275l23.445,31.275c2.091,2.795 5.291,4.267 8.533,4.267c2.24,0 4.48,-0.704 6.4,-2.133c4.715,-3.541 5.675,-10.219 2.133,-14.933l-27.2,-36.245z"/>
   </g>
  </g>
  <g id="svg_22"/>
  <g id="svg_23"/>
  <g id="svg_24"/>
  <g id="svg_25"/>
  <g id="svg_26"/>
  <g id="svg_27"/>
  <g id="svg_28"/>
  <g id="svg_29"/>
  <g id="svg_30"/>
  <g id="svg_31"/>
  <g id="svg_32"/>
  <g id="svg_33"/>
  <g id="svg_34"/>
  <g id="svg_35"/>
  <g id="svg_36"/>
  <defs>
   <style type="text/css">
    <![CDATA[
    .fil1 {fill:none}
    .fil0 {fill:#ED7F36}
   ]]>
   </style>
  </defs>
  <g stroke="null" transform="matrix(0.13015509129665895,0,0,0.13412871705304721,5.306454049787742,35.70581066586323) " id="svg_49">
   <title stroke="null" fill="#ed7c21" transform="translate(28.8087215423584,27.955249786376953) translate(1927.797607421875,-982.5390625) translate(-2.842170943040401e-14,2.842170943040401e-14) translate(-39.56407165527344,-242.47557067871094) translate(-1226.92333984375,1331.9219970703125) translate(44.823875427246094,8.699189186096191) translate(152.4011688232422,-121.78865051269531) translate(1732.0621337890625,-494.9778747558594) translate(-778.8593139648438,-341.29791259765625) translate(941.6572265625,0) translate(0,942.1572875976562) ">Layer 1</title>
   <metadata stroke="null" fill="#ed7c21" transform="translate(28.8087215423584,27.955249786376953) translate(1927.797607421875,-982.5390625) translate(-2.842170943040401e-14,2.842170943040401e-14) translate(-39.56407165527344,-242.47557067871094) translate(-1226.92333984375,1331.9219970703125) translate(44.823875427246094,8.699189186096191) translate(152.4011688232422,-121.78865051269531) translate(1732.0621337890625,-494.9778747558594) translate(-778.8593139648438,-341.29791259765625) translate(941.6572265625,0) translate(0,942.1572875976562) " id="svg_45"/>
   <path stroke="null" id="svg_44" d="m2980.91567,261.09078c9.085,3.992 16.758,10.605 21.99,18.883c7.297,-8.169 17.876,-13.471 29.754,-13.835c17.538,-0.536 32.92,9.839 39.382,24.87c4.529,-8.487 13.269,-14.391 23.432,-14.712c15.193,-0.481 27.97,11.697 28.444,27.11c0.473,15.411 -11.532,28.373 -26.725,28.853c-9.968,0.315 -18.898,-4.824 -23.994,-12.745c-4.407,13.055 -15.393,23.276 -29.168,26.689c7.241,3.34 13.163,9.067 16.667,16.168c4.357,-6.363 11.386,-10.614 19.399,-10.876c13.663,-0.446 25.155,10.873 25.58,25.2c0.427,14.326 -10.37,26.375 -24.033,26.822c-8.65,0.282 -16.429,-4.155 -21.082,-11.08c-5.537,10.975 -16.884,18.707 -30.165,19.115c-13.066,0.4 -24.717,-6.389 -31.014,-16.716c-3.62,9.398 -10.701,17.185 -19.745,21.78c8.213,5.589 13.73,14.802 14.064,25.337c0.559,17.62 -13.596,32.438 -31.511,32.988c-17.915,0.548 -32.982,-13.375 -33.54,-30.995c-0.351,-11.106 5.146,-21.1 13.743,-27.108c-8.944,-4.408 -16.076,-11.932 -19.869,-21.147c-6.416,9.812 -17.763,16.193 -30.442,15.804c-13.224,-0.405 -24.532,-8.071 -30.095,-18.972c-4.645,6.837 -12.459,11.226 -21.151,10.947c-13.663,-0.436 -24.46,-12.233 -24.033,-26.258c0.425,-14.026 11.917,-25.109 25.58,-24.672c7.86,0.252 14.775,4.259 19.147,10.291c3.47,-7.34 9.5,-13.263 16.917,-16.683c-13.402,-3.323 -24.164,-13.09 -28.793,-25.64c-5.199,8.409 -14.436,13.884 -24.757,13.551c-15.581,-0.502 -27.892,-14.037 -27.407,-30.13c0.487,-16.095 13.589,-28.812 29.169,-28.311c10.314,0.333 19.198,6.373 23.883,15.091c6.523,-14.9 21.836,-25.161 39.278,-24.627c11.631,0.356 22.016,5.447 29.295,13.329c5.252,-8.065 12.855,-14.537 21.881,-18.438c-6.605,-4.17 -11.809,-10.335 -14.695,-17.65c-5.142,11.938 -17.368,20.176 -31.299,19.75c-18.088,-0.555 -32.38,-15.516 -31.816,-33.306c0.563,-17.79 15.775,-31.847 33.863,-31.292c12.972,0.397 23.996,8.21 28.983,19.158c5.069,-13.667 18.207,-23.659 33.855,-24.138c16.653,-0.51 31.155,9.906 36.363,24.639c4.889,-11.18 16.032,-19.202 29.179,-19.604c18.088,-0.555 33.3,13.503 33.864,31.293c0.564,17.79 -13.729,32.752 -31.817,33.306c-14.127,0.433 -26.505,-8.045 -31.514,-20.258c-2.866,7.545 -8.195,13.946 -15.047,18.219zm-77.209,83.439c8.976,2.807 16.356,9.093 20.553,17.195c2.923,-5.461 7.075,-10.201 12.104,-13.853c-6.517,-3.663 -12.121,-8.747 -16.368,-14.827c-4.367,5.036 -9.956,9.011 -16.289,11.485zm-0.102,-195.111c-11.399,-0.348 -20.985,8.509 -21.34,19.721c-0.355,11.211 8.652,20.64 20.05,20.988c11.399,0.35 20.985,-8.509 21.34,-19.72c0.355,-11.21 -8.652,-20.639 -20.05,-20.989zm-0.735,264.577c-13.393,-0.412 -24.656,9.998 -25.074,23.17c-0.418,13.173 10.166,24.252 23.559,24.662c13.392,0.41 24.657,-9.998 25.073,-23.172c0.418,-13.172 -10.164,-24.25 -23.558,-24.66zm-65.396,-202.708c-11.507,-0.352 -21.185,8.591 -21.543,19.909c-0.359,11.318 8.734,20.838 20.241,21.19c11.508,0.353 21.186,-8.59 21.545,-19.909c0.359,-11.319 -8.735,-20.837 -20.243,-21.19zm164.53,121.248c-4.283,6.303 -10.022,11.59 -16.756,15.368c5.277,3.837 9.602,8.881 12.543,14.73c4.11,-8.514 11.692,-15.145 20.983,-18.049c-6.568,-2.566 -12.333,-6.744 -16.77,-12.049zm16.872,-183.06c11.398,-0.35 20.985,8.509 21.34,19.72c0.355,11.21 -8.652,20.639 -20.05,20.989c-11.399,0.349 -20.985,-8.509 -21.34,-19.72c-0.355,-11.212 8.652,-20.641 20.05,-20.989zm0.735,264.575c13.393,-0.41 24.656,9.998 25.074,23.172c0.418,13.172 -10.166,24.25 -23.559,24.66c-13.392,0.412 -24.657,-9.998 -25.073,-23.17c-0.418,-13.173 10.164,-24.252 23.558,-24.662zm65.396,-202.708c11.506,-0.352 21.184,8.592 21.543,19.91c0.359,11.318 -8.735,20.837 -20.242,21.19c-11.508,0.353 -21.186,-8.591 -21.544,-19.91c-0.359,-11.317 8.734,-20.836 20.243,-21.19zm-124.747,-74.978c14.713,-0.451 27.087,10.983 27.544,25.454c0.459,14.471 -11.167,26.64 -25.879,27.091c-14.713,0.452 -27.087,-10.983 -27.545,-25.454c-0.459,-14.471 11.167,-26.64 25.88,-27.091z" class="fil0" fill="#ed7c21"/>
   <path stroke="null" fill="#ed7c21" stroke-width="null" opacity="0.5" d="m2835.8104,181.16663" id="svg_43"/>
  </g>
  <text font-weight="bold" xml:space="preserve" text-anchor="start" font-family="Helvetica, Arial, sans-serif" font-size="57" id="svg_51" y="341.3848" x="60.23033" stroke-width="0" stroke="#ed7c21" fill="#ed7c21">Parse.</text>
 </g>
</svg>